<?xml version="1.0" encoding="utf-8"?>
<!-- Generator: Adobe Illustrator 22.0.0, SVG Export Plug-In . SVG Version: 6.00 Build 0)  -->
<svg version="1.1" id="Calque_1" xmlns="http://www.w3.org/2000/svg" xmlns:xlink="http://www.w3.org/1999/xlink" x="0px" y="0px"
	 viewBox="0 0 200 200" style="enable-background:new 0 0 200 200;" xml:space="preserve">
<style type="text/css">
	.st0{fill:#3A3C3B;}
</style>
<path class="st0" d="M100.1,4C46.9,4,3.8,47.1,3.8,100.4c0,53.2,43.1,96.4,96.4,96.4s96.4-43.1,96.4-96.4
	C196.5,47.1,153.4,4,100.1,4z M75.2,78c0-0.4,0.4-0.6,1-0.6h79.6c0.6,0,1,0.2,1,0.6v7.2c0,0.4-0.4,0.6-1,0.6H76.3
	c-0.6,0-1-0.2-1-0.6V78z M156.9,124.4c0,0.4-0.3,0.6-0.8,0.6H97.2c-0.5,0-0.8-0.2-0.8-0.6v-7.2c0-0.4,0.3-0.6,0.8-0.6h58.9
	c0.5,0,0.8,0.2,0.8,0.6V124.4z M157.4,104.8c0,0.4-0.6,0.6-1.5,0.6H40.4c-0.9,0-1.5-0.2-1.5-0.6v-7.2c0-0.4,0.6-0.6,1.5-0.6h115.5
	c0.9,0,1.5,0.2,1.5,0.6V104.8z"/>
</svg>
